<mxfile modified="2021-09-14T01:28:49.354Z" host="app.diagrams.net" agent="5.0 (Macintosh; Intel Mac OS X 10_15_7) AppleWebKit/537.36 (KHTML, like Gecko) Chrome/93.0.4577.63 Safari/537.36" etag="H8QXgrCCUbPJoJ9VBajh" version="15.2.5" type="github">
  <diagram name="Page-1" id="9361dd3d-8414-5efd-6122-117bd74ce7a7">
    <mxGraphModel dx="1186" dy="523" grid="1" gridSize="10" guides="1" tooltips="1" connect="1" arrows="1" fold="1" page="0" pageScale="1.5" pageWidth="826" pageHeight="1169" background="#ffffff" math="0" shadow="0">
      <root>
        <mxCell id="0" />
        <mxCell id="1" parent="0" />
        <mxCell id="yvu0sffzO6h7lt71J7lk-100" value="loop" style="shape=umlFrame;whiteSpace=wrap;html=1;fillColor=#f5f5f5;strokeColor=#666666;fontColor=#333333;gradientColor=none;swimlaneFillColor=none;" parent="1" vertex="1">
          <mxGeometry x="476" y="596" width="314" height="234" as="geometry" />
        </mxCell>
        <mxCell id="M3uvzyQkCSbPZBFdtPNu-94" value="Front End" style="shape=umlLifeline;participant=umlBoundary;perimeter=lifelinePerimeter;whiteSpace=wrap;html=1;container=1;collapsible=0;recursiveResize=0;verticalAlign=top;spacingTop=36;labelBackgroundColor=#ffffff;outlineConnect=0;size=39;fillColor=#ffff88;strokeColor=#36393d;" parent="1" vertex="1">
          <mxGeometry x="137" y="71" width="49" height="809" as="geometry" />
        </mxCell>
        <mxCell id="M3uvzyQkCSbPZBFdtPNu-138" value="setStrategy()" style="edgeStyle=orthogonalEdgeStyle;rounded=0;orthogonalLoop=1;jettySize=auto;html=1;entryX=1.1;entryY=0.5;entryDx=0;entryDy=0;entryPerimeter=0;" parent="M3uvzyQkCSbPZBFdtPNu-94" source="M3uvzyQkCSbPZBFdtPNu-102" target="M3uvzyQkCSbPZBFdtPNu-121" edge="1">
          <mxGeometry x="0.519" y="-42" relative="1" as="geometry">
            <Array as="points">
              <mxPoint x="55" y="261" />
              <mxPoint x="55" y="290" />
            </Array>
            <mxPoint x="38" y="25" as="offset" />
          </mxGeometry>
        </mxCell>
        <mxCell id="M3uvzyQkCSbPZBFdtPNu-102" value="" style="html=1;points=[];perimeter=orthogonalPerimeter;fillColor=#ffe6cc;strokeColor=#d79b00;" parent="M3uvzyQkCSbPZBFdtPNu-94" vertex="1">
          <mxGeometry x="19" y="70" width="10" height="680" as="geometry" />
        </mxCell>
        <mxCell id="M3uvzyQkCSbPZBFdtPNu-121" value="" style="html=1;points=[];perimeter=orthogonalPerimeter;fillColor=#ffe6cc;strokeColor=#d79b00;" parent="M3uvzyQkCSbPZBFdtPNu-94" vertex="1">
          <mxGeometry x="25" y="275" width="10" height="30" as="geometry" />
        </mxCell>
        <mxCell id="71" value="Professor disponibiliza aula" style="rounded=1;fontStyle=1;fillColor=#f5f5f5;strokeColor=#666666;fontColor=#333333;" parent="1" vertex="1">
          <mxGeometry x="10" y="20" width="750" height="30" as="geometry" />
        </mxCell>
        <mxCell id="M3uvzyQkCSbPZBFdtPNu-90" value="Professor&lt;br&gt;" style="shape=umlLifeline;participant=umlActor;perimeter=lifelinePerimeter;whiteSpace=wrap;html=1;container=1;collapsible=0;recursiveResize=0;verticalAlign=top;spacingTop=36;labelBackgroundColor=#ffffff;outlineConnect=0;" parent="1" vertex="1">
          <mxGeometry x="31" y="70" width="20" height="810" as="geometry" />
        </mxCell>
        <mxCell id="M3uvzyQkCSbPZBFdtPNu-113" value=":Usuario" style="shape=umlLifeline;perimeter=lifelinePerimeter;whiteSpace=wrap;html=1;container=1;collapsible=0;recursiveResize=0;outlineConnect=0;shadow=1;strokeColor=#36393d;fillColor=#cce5ff;" parent="1" vertex="1">
          <mxGeometry x="426" y="71" width="100" height="499" as="geometry" />
        </mxCell>
        <mxCell id="M3uvzyQkCSbPZBFdtPNu-118" value="" style="html=1;points=[];perimeter=orthogonalPerimeter;fillColor=#ffe6cc;strokeColor=#d79b00;" parent="M3uvzyQkCSbPZBFdtPNu-113" vertex="1">
          <mxGeometry x="45" y="80" width="10" height="30" as="geometry" />
        </mxCell>
        <mxCell id="lUPIS7pVgGcV44DvmDTB-71" value="" style="html=1;points=[];perimeter=orthogonalPerimeter;fillColor=#ffe6cc;strokeColor=#d79b00;" vertex="1" parent="M3uvzyQkCSbPZBFdtPNu-113">
          <mxGeometry x="45" y="420" width="10" height="60" as="geometry" />
        </mxCell>
        <mxCell id="lUPIS7pVgGcV44DvmDTB-72" value="" style="html=1;points=[];perimeter=orthogonalPerimeter;fillColor=#ffe6cc;strokeColor=#d79b00;" vertex="1" parent="M3uvzyQkCSbPZBFdtPNu-113">
          <mxGeometry x="45" y="199" width="10" height="60" as="geometry" />
        </mxCell>
        <mxCell id="M3uvzyQkCSbPZBFdtPNu-114" value="Backend" style="shape=umlLifeline;participant=umlControl;perimeter=lifelinePerimeter;whiteSpace=wrap;html=1;container=1;collapsible=0;recursiveResize=0;verticalAlign=top;spacingTop=36;labelBackgroundColor=#ffffff;outlineConnect=0;size=39;fillColor=#ffff88;strokeColor=#36393d;" parent="1" vertex="1">
          <mxGeometry x="312" y="71" width="40" height="809" as="geometry" />
        </mxCell>
        <mxCell id="M3uvzyQkCSbPZBFdtPNu-115" value="" style="html=1;points=[];perimeter=orthogonalPerimeter;fillColor=#ffe6cc;strokeColor=#d79b00;" parent="M3uvzyQkCSbPZBFdtPNu-114" vertex="1">
          <mxGeometry x="15" y="80" width="10" height="180" as="geometry" />
        </mxCell>
        <mxCell id="yvu0sffzO6h7lt71J7lk-73" value="" style="html=1;points=[];perimeter=orthogonalPerimeter;fillColor=#ffe6cc;strokeColor=#d79b00;" parent="M3uvzyQkCSbPZBFdtPNu-114" vertex="1">
          <mxGeometry x="15" y="399" width="10" height="80" as="geometry" />
        </mxCell>
        <mxCell id="yvu0sffzO6h7lt71J7lk-88" value="" style="html=1;points=[];perimeter=orthogonalPerimeter;fillColor=#ffe6cc;strokeColor=#d79b00;" parent="M3uvzyQkCSbPZBFdtPNu-114" vertex="1">
          <mxGeometry x="15" y="529" width="10" height="231" as="geometry" />
        </mxCell>
        <mxCell id="M3uvzyQkCSbPZBFdtPNu-116" value="login" style="html=1;verticalAlign=bottom;endArrow=block;entryX=0;entryY=0;" parent="1" source="M3uvzyQkCSbPZBFdtPNu-102" target="M3uvzyQkCSbPZBFdtPNu-115" edge="1">
          <mxGeometry relative="1" as="geometry">
            <mxPoint x="205" y="151" as="sourcePoint" />
          </mxGeometry>
        </mxCell>
        <mxCell id="M3uvzyQkCSbPZBFdtPNu-117" value="contexto + capabilities" style="html=1;verticalAlign=bottom;endArrow=open;dashed=1;endSize=8;exitX=0;exitY=0.889;exitDx=0;exitDy=0;exitPerimeter=0;" parent="1" source="M3uvzyQkCSbPZBFdtPNu-115" target="M3uvzyQkCSbPZBFdtPNu-102" edge="1">
          <mxGeometry relative="1" as="geometry">
            <mxPoint x="205" y="227" as="targetPoint" />
          </mxGeometry>
        </mxCell>
        <mxCell id="M3uvzyQkCSbPZBFdtPNu-120" value="contexto := PROFESSOR" style="html=1;verticalAlign=bottom;endArrow=open;dashed=1;endSize=8;exitX=0;exitY=0.95;" parent="1" source="M3uvzyQkCSbPZBFdtPNu-118" target="M3uvzyQkCSbPZBFdtPNu-115" edge="1">
          <mxGeometry relative="1" as="geometry">
            <mxPoint x="325" y="227" as="targetPoint" />
          </mxGeometry>
        </mxCell>
        <mxCell id="M3uvzyQkCSbPZBFdtPNu-119" value="login" style="html=1;verticalAlign=bottom;endArrow=block;entryX=0;entryY=0;" parent="1" source="M3uvzyQkCSbPZBFdtPNu-114" target="M3uvzyQkCSbPZBFdtPNu-118" edge="1">
          <mxGeometry relative="1" as="geometry">
            <mxPoint x="325" y="151" as="sourcePoint" />
          </mxGeometry>
        </mxCell>
        <mxCell id="M3uvzyQkCSbPZBFdtPNu-123" value="login" style="html=1;verticalAlign=bottom;endArrow=block;entryX=-0.1;entryY=0.015;entryDx=0;entryDy=0;entryPerimeter=0;" parent="1" source="M3uvzyQkCSbPZBFdtPNu-90" target="M3uvzyQkCSbPZBFdtPNu-102" edge="1">
          <mxGeometry width="80" relative="1" as="geometry">
            <mxPoint x="60" y="150" as="sourcePoint" />
            <mxPoint x="140" y="150" as="targetPoint" />
          </mxGeometry>
        </mxCell>
        <mxCell id="M3uvzyQkCSbPZBFdtPNu-124" value="dashboard" style="html=1;verticalAlign=bottom;endArrow=open;dashed=1;endSize=8;exitX=0.2;exitY=0.369;exitDx=0;exitDy=0;exitPerimeter=0;" parent="1" source="M3uvzyQkCSbPZBFdtPNu-102" target="M3uvzyQkCSbPZBFdtPNu-90" edge="1">
          <mxGeometry x="-0.0576" y="-16" relative="1" as="geometry">
            <mxPoint x="140" y="390" as="sourcePoint" />
            <mxPoint x="59.5" y="331.03999999999996" as="targetPoint" />
            <mxPoint as="offset" />
          </mxGeometry>
        </mxCell>
        <mxCell id="M3uvzyQkCSbPZBFdtPNu-136" value="user.getCapacidades()" style="html=1;verticalAlign=bottom;endArrow=block;" parent="1" source="M3uvzyQkCSbPZBFdtPNu-115" target="lUPIS7pVgGcV44DvmDTB-72" edge="1">
          <mxGeometry relative="1" as="geometry">
            <mxPoint x="487" y="250" as="sourcePoint" />
            <mxPoint x="476" y="287" as="targetPoint" />
          </mxGeometry>
        </mxCell>
        <mxCell id="M3uvzyQkCSbPZBFdtPNu-137" value="return" style="html=1;verticalAlign=bottom;endArrow=open;dashed=1;endSize=8;exitX=-0.3;exitY=1;exitDx=0;exitDy=0;exitPerimeter=0;" parent="1" source="lUPIS7pVgGcV44DvmDTB-72" target="M3uvzyQkCSbPZBFdtPNu-115" edge="1">
          <mxGeometry relative="1" as="geometry">
            <mxPoint x="487" y="326" as="targetPoint" />
            <mxPoint x="538" y="309" as="sourcePoint" />
          </mxGeometry>
        </mxCell>
        <mxCell id="yPC5T3e3hvZb6pGQuh28-72" style="edgeStyle=orthogonalEdgeStyle;rounded=0;orthogonalLoop=1;jettySize=auto;html=1;entryX=0.9;entryY=0.9;entryDx=0;entryDy=0;entryPerimeter=0;dashed=1;endArrow=none;endFill=0;" parent="1" source="yPC5T3e3hvZb6pGQuh28-71" target="M3uvzyQkCSbPZBFdtPNu-121" edge="1">
          <mxGeometry relative="1" as="geometry" />
        </mxCell>
        <mxCell id="yPC5T3e3hvZb6pGQuh28-71" value="&lt;blockquote style=&quot;margin: 0 0 0 40px ; border: none ; padding: 0px&quot;&gt;&lt;/blockquote&gt;&lt;span&gt;A estratÃ©gia&lt;/span&gt;&lt;br&gt;&lt;blockquote style=&quot;margin: 0 0 0 40px ; border: none ; padding: 0px&quot;&gt;&lt;/blockquote&gt;&lt;span&gt;mostra a tela especÃ­fica para&lt;/span&gt;&lt;br&gt;&lt;blockquote style=&quot;margin: 0 0 0 40px ; border: none ; padding: 0px&quot;&gt; &lt;/blockquote&gt;&lt;span&gt;o usuÃ¡rio que&lt;/span&gt;&lt;br&gt; efetuou login" style="shape=note;whiteSpace=wrap;html=1;size=9;verticalAlign=top;align=left;spacingTop=-6;fillColor=#f5f5f5;strokeColor=#666666;fontColor=#333333;" parent="1" vertex="1">
          <mxGeometry x="210" y="362" width="90" height="80" as="geometry" />
        </mxCell>
        <mxCell id="yvu0sffzO6h7lt71J7lk-71" value=":Grade" style="shape=umlLifeline;perimeter=lifelinePerimeter;whiteSpace=wrap;html=1;container=1;collapsible=0;recursiveResize=0;outlineConnect=0;shadow=1;strokeColor=#36393d;fillColor=#cce5ff;" parent="1" vertex="1">
          <mxGeometry x="570" y="402" width="100" height="478" as="geometry" />
        </mxCell>
        <mxCell id="rR2cdZ6DlCTuK8srPq2P-78" value="" style="html=1;points=[];perimeter=orthogonalPerimeter;strokeColor=#d79b00;fillColor=#ffe6cc;" parent="yvu0sffzO6h7lt71J7lk-71" vertex="1">
          <mxGeometry x="45" y="220" width="10" height="160" as="geometry" />
        </mxCell>
        <mxCell id="yvu0sffzO6h7lt71J7lk-72" value="listaGrade" style="html=1;verticalAlign=bottom;endArrow=block;" parent="1" source="M3uvzyQkCSbPZBFdtPNu-90" edge="1">
          <mxGeometry width="80" relative="1" as="geometry">
            <mxPoint x="60" y="470" as="sourcePoint" />
            <mxPoint x="155" y="470" as="targetPoint" />
          </mxGeometry>
        </mxCell>
        <mxCell id="yvu0sffzO6h7lt71J7lk-74" value="listaGrade" style="html=1;verticalAlign=bottom;endArrow=block;entryX=0;entryY=0;" parent="1" target="yvu0sffzO6h7lt71J7lk-73" edge="1">
          <mxGeometry relative="1" as="geometry">
            <mxPoint x="170" y="470" as="sourcePoint" />
          </mxGeometry>
        </mxCell>
        <mxCell id="yvu0sffzO6h7lt71J7lk-75" value="lista" style="html=1;verticalAlign=bottom;endArrow=open;dashed=1;endSize=8;exitX=0;exitY=0.95;" parent="1" source="yvu0sffzO6h7lt71J7lk-73" target="M3uvzyQkCSbPZBFdtPNu-102" edge="1">
          <mxGeometry relative="1" as="geometry">
            <mxPoint x="169" y="546" as="targetPoint" />
          </mxGeometry>
        </mxCell>
        <mxCell id="yvu0sffzO6h7lt71J7lk-77" value="professor.listaGrade()" style="html=1;verticalAlign=bottom;endArrow=block;" parent="1" source="yvu0sffzO6h7lt71J7lk-73" target="M3uvzyQkCSbPZBFdtPNu-113" edge="1">
          <mxGeometry relative="1" as="geometry">
            <mxPoint x="360" y="485" as="sourcePoint" />
            <mxPoint x="537" y="484.97" as="targetPoint" />
            <Array as="points">
              <mxPoint x="450" y="490" />
            </Array>
          </mxGeometry>
        </mxCell>
        <mxCell id="yvu0sffzO6h7lt71J7lk-78" value="lista" style="html=1;verticalAlign=bottom;endArrow=open;dashed=1;endSize=8;exitX=-0.3;exitY=0.95;exitDx=0;exitDy=0;exitPerimeter=0;" parent="1" source="lUPIS7pVgGcV44DvmDTB-71" target="yvu0sffzO6h7lt71J7lk-73" edge="1">
          <mxGeometry relative="1" as="geometry">
            <mxPoint x="401" y="573.5" as="targetPoint" />
            <mxPoint x="450" y="550" as="sourcePoint" />
          </mxGeometry>
        </mxCell>
        <mxCell id="yvu0sffzO6h7lt71J7lk-79" value="lista" style="html=1;verticalAlign=bottom;endArrow=open;dashed=1;endSize=8;exitX=0;exitY=0.601;exitDx=0;exitDy=0;exitPerimeter=0;" parent="1" source="M3uvzyQkCSbPZBFdtPNu-102" target="M3uvzyQkCSbPZBFdtPNu-90" edge="1">
          <mxGeometry relative="1" as="geometry">
            <mxPoint x="150" y="545" as="sourcePoint" />
            <mxPoint x="76" y="547" as="targetPoint" />
          </mxGeometry>
        </mxCell>
        <mxCell id="yvu0sffzO6h7lt71J7lk-81" value="" style="html=1;points=[];perimeter=orthogonalPerimeter;fillColor=#ffe6cc;strokeColor=#d79b00;" parent="1" vertex="1">
          <mxGeometry x="615" y="510" width="10" height="40" as="geometry" />
        </mxCell>
        <mxCell id="yvu0sffzO6h7lt71J7lk-82" value="listaGrade" style="html=1;verticalAlign=bottom;endArrow=block;entryX=-0.1;entryY=0.05;entryDx=0;entryDy=0;entryPerimeter=0;" parent="1" target="yvu0sffzO6h7lt71J7lk-81" edge="1">
          <mxGeometry x="0.0678" y="10" relative="1" as="geometry">
            <mxPoint x="484" y="512" as="sourcePoint" />
            <mxPoint as="offset" />
          </mxGeometry>
        </mxCell>
        <mxCell id="yvu0sffzO6h7lt71J7lk-83" value="lista" style="html=1;verticalAlign=bottom;endArrow=open;dashed=1;endSize=8;exitX=0;exitY=0.95;entryX=1.1;entryY=0.983;entryDx=0;entryDy=0;entryPerimeter=0;" parent="1" source="yvu0sffzO6h7lt71J7lk-81" target="lUPIS7pVgGcV44DvmDTB-71" edge="1">
          <mxGeometry relative="1" as="geometry">
            <mxPoint x="548" y="549.02" as="targetPoint" />
          </mxGeometry>
        </mxCell>
        <mxCell id="yvu0sffzO6h7lt71J7lk-87" value="adiciona aula" style="html=1;verticalAlign=bottom;endArrow=block;entryX=-0.2;entryY=0.646;entryDx=0;entryDy=0;entryPerimeter=0;" parent="1" source="M3uvzyQkCSbPZBFdtPNu-90" target="M3uvzyQkCSbPZBFdtPNu-102" edge="1">
          <mxGeometry x="-0.1278" width="80" relative="1" as="geometry">
            <mxPoint x="60" y="594" as="sourcePoint" />
            <mxPoint x="130" y="650" as="targetPoint" />
            <mxPoint x="1" as="offset" />
          </mxGeometry>
        </mxCell>
        <mxCell id="yvu0sffzO6h7lt71J7lk-89" value="adicionaAula" style="html=1;verticalAlign=bottom;endArrow=block;entryX=-0.1;entryY=0.056;entryDx=0;entryDy=0;entryPerimeter=0;" parent="1" source="M3uvzyQkCSbPZBFdtPNu-102" target="yvu0sffzO6h7lt71J7lk-88" edge="1">
          <mxGeometry relative="1" as="geometry">
            <mxPoint x="257" y="600" as="sourcePoint" />
          </mxGeometry>
        </mxCell>
        <mxCell id="yvu0sffzO6h7lt71J7lk-90" value="return" style="html=1;verticalAlign=bottom;endArrow=open;dashed=1;endSize=8;exitX=0;exitY=0.95;" parent="1" source="yvu0sffzO6h7lt71J7lk-88" target="M3uvzyQkCSbPZBFdtPNu-102" edge="1">
          <mxGeometry relative="1" as="geometry">
            <mxPoint x="257" y="676" as="targetPoint" />
          </mxGeometry>
        </mxCell>
        <mxCell id="yvu0sffzO6h7lt71J7lk-92" value="professor.adicionaGrade(aula)" style="html=1;verticalAlign=bottom;endArrow=block;entryX=0;entryY=0.15;entryDx=0;entryDy=0;entryPerimeter=0;" parent="1" source="yvu0sffzO6h7lt71J7lk-88" target="rR2cdZ6DlCTuK8srPq2P-78" edge="1">
          <mxGeometry relative="1" as="geometry">
            <mxPoint x="350" y="732" as="sourcePoint" />
            <mxPoint x="537" y="643.9100000000001" as="targetPoint" />
          </mxGeometry>
        </mxCell>
        <mxCell id="yvu0sffzO6h7lt71J7lk-99" value="repetir para semana" style="html=1;verticalAlign=bottom;endArrow=block;entryX=-0.2;entryY=0.687;entryDx=0;entryDy=0;entryPerimeter=0;" parent="1" source="M3uvzyQkCSbPZBFdtPNu-90" target="M3uvzyQkCSbPZBFdtPNu-102" edge="1">
          <mxGeometry x="0.0485" y="8" width="80" relative="1" as="geometry">
            <mxPoint x="60" y="620" as="sourcePoint" />
            <mxPoint x="153" y="630" as="targetPoint" />
            <mxPoint as="offset" />
          </mxGeometry>
        </mxCell>
        <mxCell id="rR2cdZ6DlCTuK8srPq2P-85" style="edgeStyle=orthogonalEdgeStyle;rounded=0;orthogonalLoop=1;jettySize=auto;html=1;entryX=0.5;entryY=0.04;entryDx=0;entryDy=0;entryPerimeter=0;endArrow=none;endFill=0;dashed=1;" parent="1" source="yvu0sffzO6h7lt71J7lk-97" edge="1">
          <mxGeometry relative="1" as="geometry">
            <mxPoint x="730" y="715" as="targetPoint" />
          </mxGeometry>
        </mxCell>
        <mxCell id="yvu0sffzO6h7lt71J7lk-97" value=":Aula" style="html=1;shadow=1;strokeColor=#36393d;fillColor=#cce5ff;" parent="1" vertex="1">
          <mxGeometry x="695" y="644" width="70" height="40" as="geometry" />
        </mxCell>
        <mxCell id="yvu0sffzO6h7lt71J7lk-101" value="&amp;lt;&amp;lt;create&amp;gt;&amp;gt;" style="edgeStyle=orthogonalEdgeStyle;rounded=0;orthogonalLoop=1;jettySize=auto;html=1;entryX=0;entryY=0.5;entryDx=0;entryDy=0;" parent="1" target="yvu0sffzO6h7lt71J7lk-97" edge="1">
          <mxGeometry x="-0.1268" y="20" relative="1" as="geometry">
            <mxPoint as="offset" />
            <mxPoint x="629" y="664" as="sourcePoint" />
            <mxPoint x="726" y="664" as="targetPoint" />
          </mxGeometry>
        </mxCell>
        <mxCell id="yvu0sffzO6h7lt71J7lk-102" value="confirma" style="html=1;verticalAlign=bottom;endArrow=open;dashed=1;endSize=8;exitX=-0.1;exitY=0.999;exitDx=0;exitDy=0;exitPerimeter=0;" parent="1" source="M3uvzyQkCSbPZBFdtPNu-102" target="M3uvzyQkCSbPZBFdtPNu-90" edge="1">
          <mxGeometry relative="1" as="geometry">
            <mxPoint x="143.5" y="761" as="sourcePoint" />
            <mxPoint x="63.5" y="760.5" as="targetPoint" />
          </mxGeometry>
        </mxCell>
        <mxCell id="02QeFAJdHah_Yg4VGRRc-71" value="Text" style="text;html=1;resizable=0;points=[];autosize=1;align=left;verticalAlign=top;spacingTop=-4;" parent="1" vertex="1">
          <mxGeometry x="-11" y="167" width="40" height="20" as="geometry" />
        </mxCell>
        <mxCell id="rR2cdZ6DlCTuK8srPq2P-71" value=":Apontamentos" style="shape=umlLifeline;perimeter=lifelinePerimeter;whiteSpace=wrap;html=1;container=1;collapsible=0;recursiveResize=0;outlineConnect=0;shadow=1;strokeColor=#36393d;fillColor=#cce5ff;" parent="1" vertex="1">
          <mxGeometry x="680" y="461" width="100" height="119" as="geometry" />
        </mxCell>
        <mxCell id="rR2cdZ6DlCTuK8srPq2P-72" value="" style="html=1;points=[];perimeter=orthogonalPerimeter;strokeColor=#d79b00;fillColor=#ffe6cc;" parent="rR2cdZ6DlCTuK8srPq2P-71" vertex="1">
          <mxGeometry x="45" y="59" width="10" height="21" as="geometry" />
        </mxCell>
        <mxCell id="rR2cdZ6DlCTuK8srPq2P-74" value="return" style="html=1;verticalAlign=bottom;endArrow=open;dashed=1;endSize=8;exitX=0;exitY=0.95;entryX=1.5;entryY=0.749;entryDx=0;entryDy=0;entryPerimeter=0;" parent="1" source="rR2cdZ6DlCTuK8srPq2P-72" target="yvu0sffzO6h7lt71J7lk-81" edge="1">
          <mxGeometry relative="1" as="geometry">
            <mxPoint x="660" y="591" as="targetPoint" />
          </mxGeometry>
        </mxCell>
        <mxCell id="rR2cdZ6DlCTuK8srPq2P-73" value="listaApontamentos" style="html=1;verticalAlign=bottom;endArrow=block;entryX=0;entryY=0;" parent="1" source="yvu0sffzO6h7lt71J7lk-81" target="rR2cdZ6DlCTuK8srPq2P-72" edge="1">
          <mxGeometry relative="1" as="geometry">
            <mxPoint x="660" y="515" as="sourcePoint" />
          </mxGeometry>
        </mxCell>
        <mxCell id="rR2cdZ6DlCTuK8srPq2P-80" value="return" style="html=1;verticalAlign=bottom;endArrow=open;dashed=1;endSize=8;exitX=0;exitY=0.95;entryX=1.3;entryY=0.753;entryDx=0;entryDy=0;entryPerimeter=0;" parent="1" source="rR2cdZ6DlCTuK8srPq2P-78" target="yvu0sffzO6h7lt71J7lk-88" edge="1">
          <mxGeometry relative="1" as="geometry">
            <mxPoint x="547" y="776" as="targetPoint" />
          </mxGeometry>
        </mxCell>
        <mxCell id="rR2cdZ6DlCTuK8srPq2P-92" value="return" style="html=1;verticalAlign=bottom;endArrow=open;dashed=1;endSize=8;exitX=-0.1;exitY=1.05;exitDx=0;exitDy=0;exitPerimeter=0;" parent="1" source="rR2cdZ6DlCTuK8srPq2P-93" target="rR2cdZ6DlCTuK8srPq2P-78" edge="1">
          <mxGeometry relative="1" as="geometry">
            <mxPoint x="730" y="710" as="sourcePoint" />
            <mxPoint x="625" y="680" as="targetPoint" />
          </mxGeometry>
        </mxCell>
        <mxCell id="rR2cdZ6DlCTuK8srPq2P-95" value="" style="edgeStyle=orthogonalEdgeStyle;rounded=0;orthogonalLoop=1;jettySize=auto;html=1;endArrow=none;endFill=0;dashed=1;" parent="1" source="rR2cdZ6DlCTuK8srPq2P-93" edge="1">
          <mxGeometry relative="1" as="geometry">
            <mxPoint x="730" y="800" as="targetPoint" />
          </mxGeometry>
        </mxCell>
        <mxCell id="rR2cdZ6DlCTuK8srPq2P-93" value="" style="html=1;points=[];perimeter=orthogonalPerimeter;strokeColor=#d79b00;fillColor=#ffe6cc;" parent="1" vertex="1">
          <mxGeometry x="725" y="700" width="10" height="20" as="geometry" />
        </mxCell>
      </root>
    </mxGraphModel>
  </diagram>
</mxfile>
